<svg width="94" height="94" viewBox="0 0 94 94" fill="none" xmlns="http://www.w3.org/2000/svg">
<path fill-rule="evenodd" clip-rule="evenodd" d="M0 25.6199C0 11.4698 11.4768 0.00120171 25.637 0.00120171C39.1706 0.00120171 47.0051 11.7441 47.0051 11.7441C47.0051 11.7441 56.7584 -2.86834 73.2924 0.505778C85.5647 3.01484 94.4849 14.4058 93.9796 26.912C93.7728 32.0387 92.3303 37.1009 90.0931 42.0034V58.7156C90.1131 60.1272 89.3709 61.4403 88.1507 62.1519C86.9305 62.8636 85.4214 62.8636 84.2013 62.1519C82.9811 61.4403 82.2389 60.1272 82.2589 58.7156V54.9466V43.0584C82.2589 40.8977 80.504 39.1441 78.3418 39.1441C76.1796 39.1441 74.4247 40.8977 74.4247 43.0584V54.8013V64.2736V90.03C74.4447 91.4416 73.7025 92.7546 72.4823 93.4663C71.2622 94.1779 69.7531 94.1779 68.5329 93.4663C67.3128 92.7546 66.5705 91.4416 66.5905 90.03V72.0104V66.5442C66.5905 64.3835 64.8357 62.6299 62.6734 62.6299C60.5112 62.6299 58.7564 64.3835 58.7564 66.5442V75.1602C58.7564 77.5205 57.6823 79.7659 55.8491 81.2534C54.4368 82.398 53.1298 83.4299 51.9397 84.3649C51.9194 84.3829 51.899 84.4007 51.8785 84.4184C51.8687 84.4261 51.8563 84.4338 51.844 84.4414C51.8317 84.4491 51.8194 84.4567 51.8096 84.4643C51.8018 84.4705 51.7933 84.4775 51.7846 84.4848C51.7622 84.5037 51.7381 84.5249 51.7178 84.5408V84.5331C50.3605 85.558 48.7063 86.1135 47.0051 86.1157C45.3065 86.1118 43.6552 85.5564 42.3 84.5331L42.2923 84.5408C42.2469 84.5052 42.1928 84.4616 42.1386 84.4179C42.0852 84.3748 42.0317 84.3317 41.9863 84.2961L41.9557 84.2732L41.9481 84.2655C28.5907 73.7849 0 50.2502 0 25.6199ZM82 74C82 71.7909 83.7909 70 86 70C88.2091 70 90 71.7909 90 74C90 76.2091 88.2091 78 86 78C83.7909 78 82 76.2091 82 74Z" fill="white"/>
</svg>
