<svg width="102" height="92" viewBox="0 0 102 92" fill="none" xmlns="http://www.w3.org/2000/svg">
<path fill-rule="evenodd" clip-rule="evenodd" d="M60.4941 0C59.6551 0 58.8137 0.435396 58.3875 1.31478L55.729 6.74056C55.3898 7.44217 54.7304 7.92305 53.9627 8.03682L48.0201 8.90717C46.089 9.19161 45.315 11.5741 46.7138 12.9441L51.0098 17.1662C51.5656 17.7114 51.8224 18.5 51.6905 19.268L50.6694 25.2308C50.335 27.165 52.363 28.6364 54.0915 27.7215L59.4086 24.9067C60.0915 24.5417 60.9103 24.5417 61.598 24.9067L66.9151 27.7215C68.6389 28.6364 70.6577 27.165 70.328 25.2308L69.3069 19.268C69.175 18.4953 69.4318 17.7114 69.9876 17.1662L74.2836 12.9441C75.6824 11.5741 74.9176 9.19161 72.9865 8.90717L67.0439 8.03682C66.2809 7.92305 65.6123 7.44217 65.2684 6.74056L62.6099 1.31478C62.1766 0.435396 61.3331 0 60.4941 0ZM32.4912 30C30.7634 30.0006 29.0356 30.8065 28.2387 32.4245L20.7714 47.5542L4.05786 49.9787C2.26955 50.2393 0.791279 51.4886 0.231543 53.199C-0.323449 54.9141 0.136451 56.7969 1.42669 58.0572L13.5264 69.8279L10.6729 86.4567C10.3645 88.2335 11.0926 90.0316 12.5536 91.0928C14.0241 92.1541 15.9487 92.2971 17.5473 91.4537L32.4912 83.6066L47.4444 91.4537C48.137 91.8186 48.8952 91.9997 49.6494 91.9997C50.6314 91.9997 51.6173 91.6946 52.4474 91.0928C53.9036 90.0316 54.6317 88.2335 54.3281 86.4567L51.4746 69.8279L63.565 58.0572C64.86 56.8016 65.3244 54.9141 64.7694 53.199C64.2049 51.4839 62.7221 50.2393 60.9338 49.9787L44.2203 47.5542L36.7437 32.4245C35.9468 30.8041 34.219 29.9994 32.4912 30ZM88.2624 35.09C88.6145 34.3654 89.3024 34 89.9954 34C90.6885 34 91.3876 34.3654 91.7467 35.09L93.9474 39.5415C94.2291 40.1136 94.7715 40.5102 95.4053 40.604L100.329 41.3184C101.925 41.5482 102.566 43.5086 101.411 44.6341L97.8535 48.1056C97.3934 48.5511 97.1862 49.1991 97.2942 49.8275L98.1286 54.7187C98.4009 56.3085 96.7316 57.5254 95.3045 56.7704L90.9032 54.4531C90.3351 54.1529 89.6649 54.1529 89.0968 54.4531L84.6955 56.7704C83.2684 57.5208 81.5991 56.3085 81.8714 54.7187L82.7058 49.8275C82.8138 49.1944 82.611 48.5511 82.1556 48.1056L78.5888 44.6341C77.4339 43.5086 78.0746 41.5529 79.6708 41.3184L84.5947 40.604C85.2285 40.5102 85.7801 40.1136 86.0618 39.5415L88.2624 35.09Z" fill="white"/>
</svg>
